<svg width="15" height="15" viewBox="0 0 15 15" fill="none" xmlns="http://www.w3.org/2000/svg">
<g opacity="0.5">
<circle cx="7.5" cy="7.5" r="7" stroke="#5B6375"/>
<path d="M11.25 5.715C11.2503 5.66565 11.2408 5.61673 11.2222 5.57104C11.2035 5.52535 11.176 5.48379 11.1412 5.44875L9.55125 3.85876C9.51621 3.824 9.47465 3.7965 9.42896 3.77784C9.38327 3.75918 9.33435 3.74972 9.285 3.75001C9.23564 3.74972 9.18672 3.75918 9.14103 3.77784C9.09534 3.7965 9.05379 3.824 9.01875 3.85876L7.9575 4.92L3.85876 9.01875C3.824 9.05379 3.7965 9.09534 3.77784 9.14103C3.75918 9.18672 3.74972 9.23564 3.75001 9.285V10.875C3.75001 10.9745 3.78951 11.0698 3.85984 11.1402C3.93017 11.2105 4.02555 11.25 4.12501 11.25H5.715C5.76748 11.2528 5.81996 11.2446 5.86906 11.2259C5.91816 11.2072 5.96277 11.1783 6 11.1412L10.0762 7.0425L11.1412 6C11.1755 5.96366 11.2034 5.92183 11.2237 5.87625C11.2274 5.84636 11.2274 5.81614 11.2237 5.78625C11.2255 5.7688 11.2255 5.75121 11.2237 5.73375L11.25 5.715ZM5.56125 10.5H4.5V9.43875L8.22375 5.715L9.285 6.77625L5.56125 10.5ZM9.81375 6.2475L8.7525 5.18625L9.285 4.6575L10.3425 5.715L9.81375 6.2475Z" fill="#5B6375"/>
</g>
</svg>
