<svg width="21" height="31" viewBox="0 0 21 31" fill="none" xmlns="http://www.w3.org/2000/svg">
<path d="M20.5 20.5C20.5 26.0228 16.0228 30.5 10.5 30.5C4.97715 30.5 0.5 26.0228 0.5 20.5C0.5 19.1654 1.11462 17.2439 2.0968 15.0551C3.07002 12.8863 4.37171 10.5235 5.67939 8.33154C6.98609 6.14121 8.29354 4.13007 9.27473 2.666C9.76517 1.93419 10.1737 1.33959 10.4595 0.928269C10.4733 0.908406 10.4868 0.888971 10.5 0.869969C10.5132 0.888971 10.5267 0.908406 10.5405 0.928269C10.8263 1.33959 11.2348 1.93419 11.7253 2.666C12.7065 4.13007 14.0139 6.14121 15.3206 8.33154C16.6283 10.5235 17.93 12.8863 18.9032 15.0551C19.8854 17.2439 20.5 19.1654 20.5 20.5Z" fill="#7B1EF5" stroke="black"/>
</svg>
