<svg width="15" height="15" viewBox="0 0 15 15" fill="none" xmlns="http://www.w3.org/2000/svg">
<path d="M7.5 1.25C6.26387 1.25 5.0555 1.61656 4.02769 2.30331C2.99988 2.99007 2.1988 3.96619 1.72576 5.10823C1.25271 6.25027 1.12894 7.50693 1.37009 8.71931C1.61125 9.93169 2.20651 11.0453 3.08059 11.9194C3.95466 12.7935 5.06831 13.3887 6.28069 13.6299C7.49307 13.8711 8.74974 13.7473 9.89177 13.2742C11.0338 12.8012 12.0099 12.0001 12.6967 10.9723C13.3834 9.94451 13.75 8.73613 13.75 7.5C13.75 6.67924 13.5883 5.86651 13.2743 5.10823C12.9602 4.34994 12.4998 3.66095 11.9194 3.08058C11.3391 2.50022 10.6501 2.03984 9.89177 1.72575C9.13349 1.41166 8.32076 1.25 7.5 1.25V1.25ZM7.5 10.7187C7.35785 10.7187 7.21888 10.6766 7.10069 10.5976C6.98249 10.5186 6.89036 10.4064 6.83596 10.2751C6.78156 10.1437 6.76733 9.9992 6.79506 9.85978C6.8228 9.72035 6.89125 9.59229 6.99177 9.49177C7.09229 9.39125 7.22036 9.32279 7.35978 9.29506C7.49921 9.26733 7.64372 9.28156 7.77506 9.33596C7.90639 9.39036 8.01864 9.48249 8.09762 9.60068C8.1766 9.71888 8.21875 9.85784 8.21875 10C8.21959 10.0946 8.20157 10.1885 8.16574 10.276C8.12991 10.3636 8.077 10.4432 8.01009 10.5101C7.94319 10.577 7.86362 10.6299 7.77604 10.6657C7.68846 10.7016 7.59462 10.7196 7.5 10.7187V10.7187ZM7.975 8.4375H7.025L6.7375 4.375H8.2625L7.975 8.4375Z" fill="#5B6375"/>
</svg>
