<svg width="15" height="15" viewBox="0 0 15 15" fill="none" xmlns="http://www.w3.org/2000/svg">
    <circle cx="7.5" cy="7.5" r="7.5" fill="#00CC9C"/>
    <path d="M5.55796 9.86648C5.72535 10.1063 5.93652 10.3343 6.19131 10.55C6.44616 10.7657 6.70369 10.9517 6.96419 11.108C7.22465 11.2643 7.52227 11.4186 7.85707 11.5712L7.85146 11.5656L7.8738 11.5712C7.62451 11.095 7.49993 10.6784 7.49993 10.3213C7.49993 10.1315 7.54555 9.95197 7.63675 9.7828C7.72785 9.61346 7.84684 9.46175 7.9938 9.32796C8.14083 9.19406 8.30356 9.06015 8.48209 8.92623C8.66059 8.7922 8.83912 8.64805 9.01785 8.49374C9.19637 8.33937 9.35917 8.17562 9.50611 8.00265C9.65307 7.82963 9.77204 7.62038 9.86328 7.37485C9.95438 7.1293 10 6.86141 10 6.5713C10 6.2067 9.94877 5.86446 9.84655 5.5445C9.74423 5.22458 9.60937 4.94459 9.44202 4.70467C9.27467 4.46475 9.06358 4.23685 8.80859 4.02117C8.55376 3.80539 8.29623 3.61937 8.03579 3.46317C7.77533 3.30692 7.47773 3.15253 7.14296 3L7.14851 3.00563L7.13177 3C7.37726 3.48357 7.49999 3.90028 7.49999 4.24993C7.49999 4.43966 7.45443 4.61918 7.36327 4.7884C7.27209 4.95767 7.15308 5.10924 7.00616 5.24321C6.85918 5.37711 6.69644 5.51104 6.51787 5.645C6.33925 5.77891 6.16066 5.92309 5.98212 6.07746C5.80355 6.23183 5.64081 6.39555 5.49383 6.56848C5.34691 6.7415 5.2279 6.95075 5.13672 7.19628C5.04562 7.44183 5 7.70972 5 7.99983C5 8.36443 5.05103 8.70669 5.15335 9.02661C5.25569 9.34655 5.39058 9.62662 5.55796 9.86648Z" fill="white"/>
</svg>
