<svg width="15" height="15" viewBox="0 0 15 15" fill="none" xmlns="http://www.w3.org/2000/svg">
<path d="M7.24589 14.1405H3.33354C2.27029 14.1405 1.4076 13.2746 1.4076 12.2146V2.78544C1.4076 1.7222 2.27348 0.859508 3.33354 0.859508H7.30956C7.54831 0.859508 7.73931 0.668506 7.73931 0.429754C7.73931 0.191002 7.54831 0 7.30956 0H3.33354C1.79597 0 0.548096 1.25106 0.548096 2.78544V12.2146C0.548096 13.7521 1.79916 15 3.33354 15H7.24589C7.48464 15 7.67564 14.809 7.67564 14.5702C7.67564 14.3315 7.48146 14.1405 7.24589 14.1405Z" fill="#ffffff"/>
<path d="M14.3256 7.19758L11.5943 4.46626C11.4256 4.29754 11.155 4.29754 10.9863 4.46626C10.8175 4.63498 10.8175 4.90556 10.9863 5.07428L12.9854 7.07343H4.26618C4.02743 7.07343 3.83643 7.26443 3.83643 7.50318C3.83643 7.74193 4.02743 7.93293 4.26618 7.93293H12.9854L10.9863 9.93208C10.8175 10.1008 10.8175 10.3714 10.9863 10.5401C11.069 10.6229 11.1804 10.6674 11.2887 10.6674C11.3969 10.6674 11.5083 10.6261 11.5911 10.5401L14.3224 7.80878C14.4943 7.63688 14.4943 7.36311 14.3256 7.19758Z" fill="#ffffff"/>
</svg>
