<svg width="128" height="128" viewBox="0 0 128 128" fill="none" xmlns="http://www.w3.org/2000/svg">
    <path fill-rule="evenodd" clip-rule="evenodd" d="M10.6667 32C10.6667 29.0544 13.0545 26.6666 16 26.6666H112C114.946 26.6666 117.333 29.0544 117.333 32C117.333 34.9455 114.946 37.3333 112 37.3333H16C13.0545 37.3333 10.6667 34.9455 10.6667 32Z" fill="black"/>
    <rect x="30" y="37" width="69" height="76" fill="#7B1EF5"/>
    <path fill-rule="evenodd" clip-rule="evenodd" d="M53.3333 16C51.9188 16 50.5623 16.5619 49.5621 17.5621C48.5619 18.5623 48 19.9189 48 21.3334V26.6667H80V21.3334C80 19.9189 79.4381 18.5623 78.4379 17.5621C77.4377 16.5619 76.0811 16 74.6666 16H53.3333ZM90.6666 26.6667V21.3334C90.6666 17.0899 88.9809 13.0202 85.9803 10.0197C82.9798 7.01908 78.9101 5.33337 74.6666 5.33337H53.3333C49.0898 5.33337 45.0202 7.01908 42.0196 10.0197C39.019 13.0202 37.3333 17.0899 37.3333 21.3334V26.6667H26.6666C23.7211 26.6667 21.3333 29.0545 21.3333 32V106.667C21.3333 110.91 23.019 114.98 26.0196 117.98C29.0202 120.981 33.0898 122.667 37.3333 122.667H90.6666C94.9101 122.667 98.9798 120.981 101.98 117.98C104.981 114.98 106.667 110.91 106.667 106.667V32C106.667 29.0545 104.279 26.6667 101.333 26.6667H90.6666ZM32 37.3334V106.667C32 108.081 32.5619 109.438 33.5621 110.438C34.5623 111.438 35.9188 112 37.3333 112H90.6666C92.0811 112 93.4377 111.438 94.4379 110.438C95.4381 109.438 96 108.081 96 106.667V37.3334H32Z" fill="black"/>
</svg>